<mxGraphModel dx="820" dy="646" grid="1" gridSize="10" guides="1" tooltips="1" connect="1" arrows="1" fold="1" page="1" pageScale="1" pageWidth="850" pageHeight="1100" math="0" shadow="0">
  <root>
    <mxCell id="0" />
    <mxCell id="1" parent="0" />
    <!-- Start -->
    <mxCell id="2" value="เริ่มต้น" style="ellipse;whiteSpace=wrap;html=1;strokeWidth=2;fillColor=#d5e8d4;strokeColor=#82b366;" vertex="1" parent="1">
      <mxGeometry x="375" y="20" width="100" height="40" as="geometry" />
    </mxCell>
    <!-- Process: Declare Variables -->
    <mxCell id="3" value="ประกาศตัวแปร&lt;br&gt;Name (Array 50), Age (Int)" style="text;html=1;strokeWidth=2;shape=process;whiteSpace=wrap;fillColor=#f8cecc;strokeColor=#b85450;" vertex="1" parent="1">
      <mxGeometry x="330" y="90" width="190" height="50" as="geometry" />
    </mxCell>
    <!-- Output 1 -->
    <mxCell id="4" value="แสดง: &quot;Enter your name: &quot;" style="shape=parallelogram;perimeter=parallelogramPerimeter;whiteSpace=wrap;html=1;strokeWidth=2;fillColor=#fff2cc;strokeColor=#d6b656;" vertex="1" parent="1">
      <mxGeometry x="340" y="170" width="170" height="50" as="geometry" />
    </mxCell>
    <!-- Input 1 -->
    <mxCell id="5" value="รับค่า Name" style="shape=parallelogram;perimeter=parallelogramPerimeter;whiteSpace=wrap;html=1;strokeWidth=2;fillColor=#fff2cc;strokeColor=#d6b656;" vertex="1" parent="1">
      <mxGeometry x="375" y="250" width="100" height="50" as="geometry" />
    </mxCell>
    <!-- Output 2 -->
    <mxCell id="6" value="แสดง: &quot;Enter your age: &quot;" style="shape=parallelogram;perimeter=parallelogramPerimeter;whiteSpace=wrap;html=1;strokeWidth=2;fillColor=#fff2cc;strokeColor=#d6b656;" vertex="1" parent="1">
      <mxGeometry x="340" y="330" width="170" height="50" as="geometry" />
    </mxCell>
    <!-- Input 2 -->
    <mxCell id="7" value="รับค่า Age" style="shape=parallelogram;perimeter=parallelogramPerimeter;whiteSpace=wrap;html=1;strokeWidth=2;fillColor=#fff2cc;strokeColor=#d6b656;" vertex="1" parent="1">
      <mxGeometry x="375" y="410" width="100" height="50" as="geometry" />
    </mxCell>
    <!-- Output 3 -->
    <mxCell id="8" value="แสดง: &quot;- - - - - -&quot;" style="shape=parallelogram;perimeter=parallelogramPerimeter;whiteSpace=wrap;html=1;strokeWidth=2;fillColor=#fff2cc;strokeColor=#d6b656;" vertex="1" parent="1">
      <mxGeometry x="360" y="490" width="130" height="50" as="geometry" />
    </mxCell>
    <!-- Output 4 -->
    <mxCell id="9" value="แสดง: &quot;Hello [Name]&quot;" style="shape=parallelogram;perimeter=parallelogramPerimeter;whiteSpace=wrap;html=1;strokeWidth=2;fillColor=#fff2cc;strokeColor=#d6b656;" vertex="1" parent="1">
      <mxGeometry x="340" y="570" width="170" height="50" as="geometry" />
    </mxCell>
    <!-- Output 5 -->
    <mxCell id="10" value="แสดง: &quot;Age = [Age]&quot;" style="shape=parallelogram;perimeter=parallelogramPerimeter;whiteSpace=wrap;html=1;strokeWidth=2;fillColor=#fff2cc;strokeColor=#d6b656;" vertex="1" parent="1">
      <mxGeometry x="340" y="650" width="170" height="50" as="geometry" />
    </mxCell>
    <!-- Process: Return 0 (End process) -->
    <mxCell id="11" value="คืนค่า 0 (Return 0)" style="text;html=1;strokeWidth=2;shape=process;whiteSpace=wrap;fillColor=#f8cecc;strokeColor=#b85450;" vertex="1" parent="1">
      <mxGeometry x="360" y="730" width="130" height="40" as="geometry" />
    </mxCell>
    <!-- Stop -->
    <mxCell id="12" value="สิ้นสุด" style="ellipse;whiteSpace=wrap;html=1;strokeWidth=2;fillColor=#d5e8d4;strokeColor=#82b366;" vertex="1" parent="1">
      <mxGeometry x="375" y="800" width="100" height="40" as="geometry" />
    </mxCell>
    <!-- Connections (Edges) -->
    <mxCell id="13" value="" style="endArrow=classic;html=1;exitX=0.5;exitY=1;entryX=0.5;entryY=0" edge="1" parent="1" source="2" target="3">
      <mxGeometry width="50" height="50" relative="1" as="geometry" />
    </mxCell>
    <mxCell id="14" value="" style="endArrow=classic;html=1;exitX=0.5;exitY=1;entryX=0.5;entryY=0" edge="1" parent="1" source="3" target="4">
      <mxGeometry width="50" height="50" relative="1" as="geometry" />
    </mxCell>
    <mxCell id="15" value="" style="endArrow=classic;html=1;exitX=0.5;exitY=1;entryX=0.5;entryY=0" edge="1" parent="1" source="4" target="5">
      <mxGeometry width="50" height="50" relative="1" as="geometry" />
    </mxCell>
    <mxCell id="16" value="" style="endArrow=classic;html=1;exitX=0.5;exitY=1;entryX=0.5;entryY=0" edge="1" parent="1" source="5" target="6">
      <mxGeometry width="50" height="50" relative="1" as="geometry" />
    </mxCell>
    <mxCell id="17" value="" style="endArrow=classic;html=1;exitX=0.5;exitY=1;entryX=0.5;entryY=0" edge="1" parent="1" source="6" target="7">
      <mxGeometry width="50" height="50" relative="1" as="geometry" />
    </mxCell>
    <mxCell id="18" value="" style="endArrow=classic;html=1;exitX=0.5;exitY=1;entryX=0.5;entryY=0" edge="1" parent="1" source="7" target="8">
      <mxGeometry width="50" height="50" relative="1" as="geometry" />
    </mxCell>
    <mxCell id="19" value="" style="endArrow=classic;html=1;exitX=0.5;exitY=1;entryX=0.5;entryY=0" edge="1" parent="1" source="8" target="9">
      <mxGeometry width="50" height="50" relative="1" as="geometry" />
    </mxCell>
    <mxCell id="20" value="" style="endArrow=classic;html=1;exitX=0.5;exitY=1;entryX=0.5;entryY=0" edge="1" parent="1" source="9" target="10">
      <mxGeometry width="50" height="50" relative="1" as="geometry" />
    </mxCell>
    <mxCell id="21" value="" style="endArrow=classic;html=1;exitX=0.5;exitY=1;entryX=0.5;entryY=0" edge="1" parent="1" source="10" target="11">
      <mxGeometry width="50" height="50" relative="1" as="geometry" />
    </mxCell>
    <mxCell id="22" value="" style="endArrow=classic;html=1;exitX=0.5;exitY=1;entryX=0.5;entryY=0" edge="1" parent="1" source="11" target="12">
      <mxGeometry width="50" height="50" relative="1" as="geometry" />
    </mxCell>
  </root>
</mxGraphModel>
